HIERARCHY
ROOT Hips
{
	OFFSET -0.001795 -0.223333 0.028219
	CHANNELS 6 Xposition Yposition Zposition Zrotation Yrotation Xrotation 
	JOINT LeftUpLeg
	{
		OFFSET 0.069520 -0.091406 -0.006815
		CHANNELS 3 Zrotation Yrotation Xrotation
		JOINT LeftLeg
		{
			OFFSET 0.034277 -0.375199 -0.004496
			CHANNELS 3 Zrotation Yrotation Xrotation
			JOINT LeftFoot
			{
				OFFSET -0.013596 -0.397961 -0.043693
				CHANNELS 3 Zrotation Yrotation Xrotation
				JOINT LeftToe
				{
					OFFSET 0.026358 -0.055791 0.119288
					CHANNELS 3 Zrotation Yrotation Xrotation
					End Site
					{
						OFFSET 0.000000 0.000000 0.000000
					}
				}
			}
		}
	}
	JOINT RightUpLeg
	{
		OFFSET -0.067670 -0.090522 -0.004320
		CHANNELS 3 Zrotation Yrotation Xrotation
		JOINT RightLeg
		{
			OFFSET -0.038290 -0.382569 -0.008850
			CHANNELS 3 Zrotation Yrotation Xrotation
			JOINT RightFoot
			{
				OFFSET 0.015774 -0.398415 -0.042312
				CHANNELS 3 Zrotation Yrotation Xrotation
				JOINT RightToe
				{
					OFFSET -0.025372 -0.048144 0.123348
					CHANNELS 3 Zrotation Yrotation Xrotation
					End Site
					{
						OFFSET 0.000000 0.000000 0.000000
					}
				}
			}
		}
	}
	JOINT Spine
	{
		OFFSET -0.002533 0.108963 -0.026696
		CHANNELS 3 Zrotation Yrotation Xrotation
		JOINT Spine1
		{
			OFFSET 0.005487 0.135180 0.001092
			CHANNELS 3 Zrotation Yrotation Xrotation
			JOINT Spine2
			{
				OFFSET 0.001457 0.052922 0.025425
				CHANNELS 3 Zrotation Yrotation Xrotation
				JOINT Neck
				{
					OFFSET -0.002778 0.213870 -0.042857
					CHANNELS 3 Zrotation Yrotation Xrotation
					JOINT Head
					{
						OFFSET 0.005152 0.064970 0.051349
						CHANNELS 3 Zrotation Yrotation Xrotation
						End Site
						{
							OFFSET 0.000000 0.000000 0.000000
						}
					}
				}
				JOINT LeftShoulder
				{
					OFFSET 0.078845 0.121749 -0.034090
					CHANNELS 3 Zrotation Yrotation Xrotation
					JOINT LeftArm
					{
						OFFSET 0.090977 0.030469 -0.008868
						CHANNELS 3 Zrotation Yrotation Xrotation
						JOINT LeftForeArm
						{
							OFFSET 0.259612 -0.012772 -0.027456
							CHANNELS 3 Zrotation Yrotation Xrotation
							JOINT LeftHand
							{
								OFFSET 0.249234 0.008986 -0.001171
								CHANNELS 3 Zrotation Yrotation Xrotation
								End Site
								{
									OFFSET 0.000000 0.000000 0.000000
								}
							}
						}
					}
				}
				JOINT RightShoulder
				{
					OFFSET -0.081759 0.118833 -0.038615
					CHANNELS 3 Zrotation Yrotation Xrotation
					JOINT RightArm
					{
						OFFSET -0.096012 0.032551 -0.009143
						CHANNELS 3 Zrotation Yrotation Xrotation
						JOINT RightForeArm
						{
							OFFSET -0.253742 -0.013329 -0.021401
							CHANNELS 3 Zrotation Yrotation Xrotation
							JOINT RightHand
							{
								OFFSET -0.255298 0.007772 -0.005559
								CHANNELS 3 Zrotation Yrotation Xrotation
								End Site
								{
									OFFSET 0.000000 0.000000 0.000000
								}
							}
						}
					}
				}
			}
		}
	}
}
MOTION
Frames: 5
Frame Time: 0.050000
0.000000 0.990324 0.000000 -0.066152 -9.475375 -3.124389 5.819450 -0.078129 -4.914237 1.355265 0.923358 -18.398233 12.679024 23.561636 105.645314 0.000000 0.000000 0.000000 -7.009171 0.422388 -4.206664 5.060180 -0.083817 -16.348727 -50.951566 -27.601996 107.589682 0.000000 0.000000 0.000000 0.498780 -0.338816 9.134302 6.618932 0.631921 -38.783357 -1.858983 11.123947 42.693677 12.887674 2.515035 -83.622509 0.000000 0.000000 0.000000 -17.044223 -14.112592 6.094173 -38.882192 -22.241242 -1.225112 -32.477108 22.254371 -7.265688 0.000000 0.000000 0.000000 13.111591 9.919968 5.202734 52.036225 7.194543 -6.209062 7.100642 -47.122457 -1.972643 0.000000 0.000000 0.000000 
0.000627 0.991090 0.001380 0.111081 -8.949820 -2.365238 6.317452 -0.109083 -6.290197 -0.232339 0.873826 -18.678515 19.721883 24.541814 109.553444 0.000000 0.000000 0.000000 -7.796080 0.459824 -4.898333 4.485674 -0.147932 -16.100910 -49.087292 -25.272683 112.487119 0.000000 0.000000 0.000000 -0.549504 -0.252810 8.804053 8.243893 0.871994 -41.578801 -2.167439 13.125413 44.866841 11.698963 2.497242 -87.016115 0.000000 0.000000 0.000000 -14.243229 -15.980496 6.381888 -41.104510 -24.351700 -0.610879 -35.189104 24.078235 -8.569088 0.000000 0.000000 0.000000 12.059773 9.089255 5.046352 52.597444 9.081886 -5.496005 11.615764 -49.972840 -3.627905 0.000000 0.000000 0.000000 
0.001218 0.992319 0.002439 0.806881 -7.689453 -3.096047 5.303054 -0.176457 -5.785182 -0.218739 0.860129 -19.023194 22.309468 24.384303 113.657979 0.000000 0.000000 0.000000 -7.924401 0.424513 -5.021263 2.868068 -0.300153 -14.721717 -44.476356 -23.635625 115.252082 0.000000 0.000000 0.000000 -1.781562 -0.183255 10.443621 6.257500 1.384615 -45.205383 0.722566 12.091161 47.444099 7.299442 2.555582 -92.133325 0.000000 0.000000 0.000000 -12.317826 -16.415742 6.454228 -44.095712 -26.215643 -0.088633 -35.416896 26.100037 -9.225796 0.000000 0.000000 0.000000 11.128463 12.362085 6.353940 49.614423 9.316583 -5.296527 26.420716 -54.285920 -11.687325 0.000000 0.000000 0.000000 
0.002261 0.994160 0.002495 0.687435 -8.016910 -2.375869 5.796019 -0.192528 -7.091102 -0.786655 0.863724 -19.320709 19.335362 24.163083 116.161723 0.000000 0.000000 0.000000 -8.457825 0.477581 -6.070126 2.950492 -0.286608 -14.691424 -46.740074 -23.602859 116.214637 0.000000 0.000000 0.000000 -1.968670 -0.147726 9.095433 7.454046 1.347302 -44.999342 0.321434 13.965287 47.419991 10.447379 2.386147 -92.608004 0.000000 0.000000 0.000000 -12.188335 -14.779827 5.434536 -44.633808 -26.452620 0.024068 -36.983578 27.862096 -10.467729 0.000000 0.000000 0.000000 9.834371 13.344008 6.661138 48.084164 10.071553 -4.660003 26.607427 -57.150782 -12.325669 0.000000 0.000000 0.000000 
0.003428 0.993633 0.002905 0.931824 -6.346587 -2.234619 4.913096 -0.322343 -7.858407 -0.898553 0.761837 -18.332145 23.123374 23.872374 117.189692 0.000000 0.000000 0.000000 -8.863591 0.436302 -5.897057 2.209050 -0.362429 -15.157287 -48.225722 -23.554856 118.552801 0.000000 0.000000 0.000000 -1.970839 -0.161975 9.362615 6.591710 1.227235 -44.803203 1.000884 14.007421 47.273309 9.054356 2.037855 -93.663726 0.000000 0.000000 0.000000 -12.854481 -15.068627 5.309351 -44.607036 -27.129215 0.340854 -38.970316 27.998529 -11.264809 0.000000 0.000000 0.000000 9.288587 13.513861 6.754177 45.290838 10.432392 -4.356644 28.390514 -59.884282 -13.990870 0.000000 0.000000 0.000000 
